<svg id="Layer_1" data-name="Layer 1" xmlns="http://www.w3.org/2000/svg" width="28.243cm" height="2.163cm" viewBox="0 0 800.6 61.3">
  <title>logo</title>
  <polygon fill="#b7dcdf" points="41 24.3 9 24.3 9 0.3 0 0.3 0 59.3 9 59.3 9 32.3 41 32.3 41 59.3 50 59.3 50 0.3 41 0.3 41 24.3"/>
  <rect fill="#b7dcdf" x="69" y="0.3" width="9" height="60"/>
  <path fill="#b7dcdf" d="M274.89.3l-25.083,60h8.724l4.609-11h29.019l4.61,11h8.924L280.509.3Zm-7.69,41,10.3-24.9.1-.2.1.3L288,41.3Z"/>
  <polygon fill="#b7dcdf" points="324 0.3 315 0.3 315 59.3 349 59.3 349 51.3 324 51.3 324 0.3"/>
  <polygon fill="#b7dcdf" points="368 31.3 394 31.3 394 23.3 369 23.3 369 8.3 396 8.3 396 0.3 359 0.3 359 59.3 396 59.3 396 51.3 368 51.3 368 31.3"/>
  <polygon fill="#b7dcdf" points="451 24.3 419 24.3 419 0.3 410 0.3 410 59.3 419 59.3 419 32.3 451 32.3 451 59.3 460 59.3 460 0.3 451 0.3 451 24.3"/>
  <polygon fill="#b7dcdf" points="209.944 0.3 190.178 47.658 170.813 0.3 162.686 0.3 143.021 47.658 123.656 0.3 115.529 0.3 90.044 60.3 99.877 60.3 119.543 12.942 138.907 60.3 147.034 60.3 166.8 12.942 186.165 60.3 194.292 60.3 213.957 12.942 233.723 60.3 243.456 60.3 218.071 0.3 209.944 0.3"/>
  <path fill="#b7dcdf" d="M536.7,28.9c-2.4-1.7-4.8-3.3-7.2-4.9a23.791,23.791,0,0,1-5.5-4.9,7.645,7.645,0,0,1-1.9-5c0-1.8,0-5.6,8.5-5.6a26.021,26.021,0,0,1,10,2.1l2.4,1L546.3,4l-2.4-1.1a31.558,31.558,0,0,0-13.7-3c-5.1,0-9.3,1.2-12.4,3.7a12.9,12.9,0,0,0-5,10.6,15.785,15.785,0,0,0,3,9.2,28.824,28.824,0,0,0,6.7,6.8l7.2,5.1a26.684,26.684,0,0,1,5.5,5,7.542,7.542,0,0,1,1.9,4.8,6.514,6.514,0,0,1-2.4,5.5c-1.9,1.4-4.7,2.1-8.5,2.1a19.025,19.025,0,0,1-10.6-3.1l-2.2-1.4-4.6,7,2,1.5a25.8,25.8,0,0,0,15.4,4.7c6,0,10.8-1.4,14.4-4.1,3.8-2.9,5.7-7.1,5.7-12.5a15.268,15.268,0,0,0-3-9.1,25.15,25.15,0,0,0-6.6-6.8"/>
  <rect fill="#b7dcdf" x="608" y="0.3" width="9" height="60"/>
  <path fill="#b7dcdf" d="M672,48.5c-.7-.8-2.5-3.1-5.2-6.6-2.1-2.7-3.9-5.1-5.4-7.1a28.663,28.663,0,0,0,5-5.8,18.685,18.685,0,0,0,3.3-10.6c0-5.7-2-10.1-6-13.3Q658,.6,649.3.6c-3.3,0-7.3.2-12.3.5l-3,.2v59h9V38.1c3.4.2,6.6.3,10,.3,6.6,9,10.7,14.3,12.5,16.2a22.052,22.052,0,0,0,6.3,4.6,15.338,15.338,0,0,0,8.6,1.1H683l.2-6.9-2.4-.3c-3.2-.2-6.1-1.8-8.8-4.6M657.9,26.7c-2,2.3-3.8,3.5-5.2,3.5-2.7,0-5.6-.1-8.7-.2V9.1c2-.1,3.8-.2,5.4-.2,3.7,0,6.6.8,8.8,2.5a8.005,8.005,0,0,1,2.9,6.7,12.429,12.429,0,0,1-3.2,8.6"/>
  <rect fill="#b7dcdf" x="693" y="0.3" width="9" height="60"/>
  <polygon fill="#b7dcdf" points="713 9.3 731 9.3 731 60.3 740 60.3 740 9.3 759 9.3 759 1.3 713 1.3 713 9.3"/>
  <path fill="#b7dcdf" d="M797.6,35.5a28.01,28.01,0,0,0-6.7-6.6c-2.4-1.7-4.8-3.3-7.2-4.9a23.791,23.791,0,0,1-5.5-4.9,7.645,7.645,0,0,1-1.9-5c0-1.8,0-5.6,8.5-5.6a26.021,26.021,0,0,1,10,2.1l2.4,1L800.5,4l-2.3-1.1a31.558,31.558,0,0,0-13.7-3c-5.1,0-9.3,1.2-12.4,3.7a12.9,12.9,0,0,0-5,10.6,15.785,15.785,0,0,0,3,9.2,28.824,28.824,0,0,0,6.7,6.8l7.2,5.1a26.684,26.684,0,0,1,5.5,5,7.542,7.542,0,0,1,1.9,4.8,6.514,6.514,0,0,1-2.4,5.5c-1.9,1.4-4.7,2.1-8.5,2.1a19.025,19.025,0,0,1-10.6-3.1l-2.2-1.4-4.6,7,2,1.5a25.8,25.8,0,0,0,15.4,4.7c6,0,10.8-1.4,14.4-4.1,3.8-2.9,5.7-7.1,5.7-12.5a15.423,15.423,0,0,0-3-9.3"/>
  <path fill="#b7dcdf" d="M588.831,3.56C585.09.622,580.135-.8,574.168-.8c-4.044,0-8.393.2-12.741.608L559,.014V60.3h9v-23h1.416a28.867,28.867,0,0,0,17.595-5.471c5.157-3.851,7.787-8.714,7.787-14.692S592.775,6.6,588.831,3.56M580.8,25.8a19.086,19.086,0,0,1-11.7,3.5H568V8.2c2-.1,3.8-.2,5.4-.2,3.8,0,6.8.8,8.9,2.4,1.9,1.4,2.8,3.7,2.8,7.2.2,3.4-1.2,6.1-4.3,8.2"/>
</svg>
