<?xml version="1.0" encoding="utf-8"?>
<!-- Generator: Adobe Illustrator 28.1.0, SVG Export Plug-In . SVG Version: 6.00 Build 0)  -->
<svg version="1.1" baseProfile="tiny" id="Layer_1" xmlns="http://www.w3.org/2000/svg" xmlns:xlink="http://www.w3.org/1999/xlink"
	 x="0px" y="0px" viewBox="0 0 129.4 61.3" overflow="visible" xml:space="preserve">
<g>
	<g>
		<path fill="#FFFFFF" d="M64.7,61.3C28.4,61.3,0,48.6,0,32.5c0-4.1,1.8-8,5.4-11.7l2.1,2.1C4.5,26,3,29.2,3,32.5
			c0,14,28.2,25.8,61.7,25.8s61.7-11.8,61.7-25.8c0-9.9-13.9-19-35.5-23.3l0.6-2.9c23.4,4.7,37.9,14.7,37.9,26.2
			C129.4,48.6,101,61.3,64.7,61.3z"/>
	</g>
	<g>
		<g>
			<polygon fill="#FFFFFF" points="95.1,16.3 64.7,5.2 99.9,0 			"/>
		</g>
	</g>
</g>
</svg>
